<svg id="Capa_1" data-name="Capa 1" xmlns="http://www.w3.org/2000/svg" viewBox="0 0 95.6 64.41"><defs><style>.cls-1{fill:#e1e4e5;}</style></defs><title>certinno-eu-flag</title><path class="cls-1" d="M93.35,64.41H2.25A2.25,2.25,0,0,1,0,62.16V2.25A2.2,2.2,0,0,1,2.25,0h91.1a2.28,2.28,0,0,1,2.24,2.19v60A2.25,2.25,0,0,1,93.35,64.41ZM2.25,1.27a.92.92,0,0,0-1,1V62.16a1,1,0,0,0,1,1h91.1a1,1,0,0,0,1-1V2.25a1,1,0,0,0-1-1Z"/><polygon class="cls-1" points="48.73 9.64 52.13 9.64 49.5 11.68 50.43 14.91 47.8 12.87 45.16 14.91 46.27 11.68 43.63 9.64 46.86 9.64 47.8 6.41 48.73 9.64"/><polygon class="cls-1" points="48.9 51.62 52.22 51.62 49.58 53.66 50.6 56.72 47.97 54.85 45.33 56.72 46.44 53.66 43.72 51.62 46.95 51.62 47.97 48.56 48.9 51.62"/><polygon class="cls-1" points="59.27 48.82 62.59 48.82 59.95 50.86 60.97 54 58.34 52.05 55.7 54 56.72 50.86 54.09 48.82 57.4 48.82 58.34 45.76 59.27 48.82"/><polygon class="cls-1" points="59.27 12.45 62.59 12.45 59.95 14.4 60.97 17.55 58.34 15.59 55.7 17.55 56.72 14.4 54.09 12.45 57.4 12.45 58.34 9.39 59.27 12.45"/><polygon class="cls-1" points="67 20.18 70.32 20.18 67.68 22.13 68.7 25.28 66.07 23.32 63.44 25.28 64.45 22.13 61.82 20.18 65.05 20.18 66.07 17.12 67 20.18"/><polygon class="cls-1" points="67 41.26 70.32 41.26 67.68 43.21 68.7 46.44 66.07 44.48 63.44 46.44 64.45 43.21 61.82 41.26 65.05 41.26 66.07 38.2 67 41.26"/><polygon class="cls-1" points="69.89 30.55 73.21 30.55 70.57 32.59 71.59 35.73 68.96 33.69 66.33 35.73 67.34 32.59 64.71 30.55 67.94 30.55 68.96 27.49 69.89 30.55"/><polygon class="cls-1" points="38.28 12.45 41.51 12.45 38.88 14.4 39.9 17.55 37.26 15.59 34.63 17.55 35.65 14.4 33.01 12.45 36.24 12.45 37.26 9.39 38.28 12.45"/><polygon class="cls-1" points="30.72 20.18 33.95 20.18 31.31 22.13 32.33 25.28 29.78 23.32 27.15 25.28 28.17 22.13 25.45 20.18 28.76 20.18 29.78 17.12 30.72 20.18"/><polygon class="cls-1" points="27.91 30.55 31.23 30.55 28.59 32.59 29.53 35.73 26.98 33.78 24.34 35.73 25.36 32.59 22.73 30.55 25.96 30.55 26.98 27.57 27.91 30.55"/><polygon class="cls-1" points="30.72 41.34 33.95 41.34 31.31 43.21 32.33 46.44 29.78 44.48 27.15 46.44 28.17 43.21 25.45 41.34 28.76 41.34 29.78 38.28 30.72 41.34"/><polygon class="cls-1" points="38.37 48.82 41.59 48.82 38.96 50.86 39.98 54 37.35 52.13 34.71 54 35.82 50.86 33.1 48.82 36.33 48.82 37.35 45.76 38.37 48.82"/></svg>